<?xml version="1.0" encoding="UTF-8"?>
<svg id="Layer_2" data-name="Layer 2" xmlns="http://www.w3.org/2000/svg" viewBox="0 0 128.06 128.06">
  <defs>
    <style>
      .cls-1 {
        fill: #3757bf;
      }

      .cls-2 {
        fill: #fff;
      }
    </style>
  </defs>
  <g id="Layer_1-2" data-name="Layer 1">
    <rect class="cls-1" width="128.06" height="128.06"/>
    <g>
      <path class="cls-2" d="M57.97,60.66h0c-1.86,0-3.37-1.51-3.37-3.37v-20.78c0-.47-.09-.91-.27-1.32-.18-.41-.42-.77-.73-1.07s-.66-.55-1.07-.72c-.41-.17-.85-.26-1.32-.26s-.91.09-1.32.26c-.41.17-.77.41-1.07.72-.31.31-.55.67-.72,1.07-.17.41-.26.85-.26,1.32v20.78c0,1.86-1.51,3.37-3.37,3.37h-.02c-1.86,0-3.37-1.51-3.37-3.37v-20.78c0-.47-.09-.91-.26-1.32-.17-.41-.41-.77-.72-1.07s-.66-.55-1.07-.72c-.41-.17-.85-.26-1.32-.26s-.91.09-1.32.26-.77.41-1.07.72-.55.67-.72,1.07c-.17.41-.26.85-.26,1.32v20.78c0,1.86-1.51,3.37-3.37,3.37h-.02c-1.86,0-3.37-1.51-3.37-3.37v-20.78c0-1.4.26-2.72.79-3.95.53-1.23,1.25-2.31,2.17-3.23s2-1.64,3.23-2.17c1.23-.53,2.55-.79,3.95-.79,1.26,0,2.47.22,3.63.67,1.16.45,2.21,1.1,3.14,1.95.93-.85,1.97-1.5,3.12-1.95,1.16-.45,2.36-.67,3.62-.67,1.4,0,2.72.26,3.95.79,1.23.53,2.31,1.25,3.23,2.17.92.92,1.64,2,2.17,3.23s.79,2.55.79,3.95v20.78c0,1.86-1.51,3.37-3.37,3.37Z"/>
      <path class="cls-2" d="M100.51,43.89c0,1.6-.21,3.15-.62,4.63-.42,1.49-1,2.88-1.76,4.17-.75,1.3-1.67,2.48-2.74,3.55-1.07,1.07-2.25,1.99-3.54,2.75s-2.68,1.35-4.17,1.77-3.04.62-4.65.62-3.15-.21-4.63-.62-2.88-1.01-4.17-1.77c-1.3-.76-2.48-1.68-3.55-2.75-1.07-1.07-1.98-2.25-2.75-3.55-.76-1.3-1.35-2.69-1.77-4.17-.42-1.49-.62-3.03-.62-4.63s.21-3.15.62-4.65c.42-1.49,1.01-2.88,1.77-4.17.76-1.29,1.68-2.47,2.75-3.54s2.25-1.98,3.55-2.74c1.3-.75,2.69-1.34,4.17-1.76,1.49-.42,3.03-.62,4.63-.62s3.15.21,4.65.62c1.49.42,2.89,1,4.17,1.76s2.47,1.67,3.54,2.74c1.07,1.07,1.98,2.25,2.74,3.54.75,1.29,1.34,2.68,1.76,4.17.42,1.49.62,3.04.62,4.65ZM93.79,43.89c0-1.48-.28-2.87-.85-4.19s-1.33-2.45-2.3-3.42-2.11-1.73-3.42-2.3c-1.31-.57-2.71-.85-4.19-.85s-2.89.28-4.2.85c-1.31.57-2.45,1.33-3.42,2.3s-1.75,2.11-2.31,3.42-.85,2.71-.85,4.19.28,2.87.85,4.16c.57,1.3,1.34,2.43,2.31,3.41.97.98,2.11,1.75,3.42,2.31,1.3.57,2.7.85,4.2.85s2.87-.28,4.19-.85c1.31-.57,2.45-1.34,3.42-2.31.97-.97,1.73-2.11,2.3-3.41.57-1.3.85-2.68.85-4.16Z"/>
      <path class="cls-2" d="M54.92,72.61l-8.49,25.86c-.63,1.92-2.42,3.21-4.44,3.21h0c-2.02,0-3.81-1.3-4.44-3.22l-8.46-25.85c-.77-2.34.98-4.74,3.44-4.74h0c1.6,0,3.01,1.05,3.47,2.58l5.23,19.4c.23.77,1.32.77,1.55,0l5.19-19.4c.46-1.53,1.87-2.58,3.47-2.58h.04c2.46,0,4.21,2.41,3.44,4.75Z"/>
      <rect class="cls-2" x="65.54" y="67.86" width="34.97" height="6.77" rx="3.38" ry="3.38"/>
      <rect class="cls-2" x="65.54" y="81.39" width="23.18" height="6.77" rx="3.14" ry="3.14"/>
      <rect class="cls-2" x="65.54" y="94.92" width="34.97" height="6.77" rx="3.38" ry="3.38"/>
      <circle class="cls-2" cx="97.13" cy="84.77" r="3.38"/>
    </g>
  </g>
</svg>