<?xml version="1.0" encoding="UTF-8"?>
<svg id="Layer_2" xmlns="http://www.w3.org/2000/svg" version="1.1" viewBox="0 0 128.06 128.06">
  <!-- Generator: Adobe Illustrator 30.3.0, SVG Export Plug-In . SVG Version: 2.1.3 Build 182)  -->
  <defs>
    <style>
      .st0 {
        fill: #3757bf;
      }

      .st1 {
        fill: #fff;
      }
    </style>
  </defs>
  <rect class="st0" y="0" width="128.06" height="128.06"/>
  <g>
    <path class="st1" d="M58.85,61.15h0c-1.59,0-2.88-1.29-2.88-2.88v-17.77c0-.4-.08-.78-.23-1.13s-.36-.66-.62-.91-.56-.47-.91-.62c-.35-.15-.73-.22-1.13-.22s-.78.08-1.13.22-.66.35-.91.62c-.27.27-.47.57-.62.91-.15.35-.22.73-.22,1.13v17.77c0,1.59-1.29,2.88-2.88,2.88h-.02c-1.59,0-2.88-1.29-2.88-2.88v-17.77c0-.4-.08-.78-.22-1.13s-.35-.66-.62-.91-.56-.47-.91-.62c-.35-.15-.73-.22-1.13-.22s-.78.08-1.13.22-.66.35-.91.62-.47.57-.62.91c-.15.35-.22.73-.22,1.13v17.77c0,1.59-1.29,2.88-2.88,2.88h-.02c-1.59,0-2.88-1.29-2.88-2.88v-17.77c0-1.2.22-2.33.68-3.38s1.07-1.98,1.86-2.76,1.71-1.4,2.76-1.86c1.05-.45,2.18-.68,3.38-.68,1.08,0,2.11.19,3.1.57s1.89.94,2.69,1.67c.8-.73,1.68-1.28,2.67-1.67.99-.38,2.02-.57,3.1-.57,1.2,0,2.33.22,3.38.68s1.98,1.07,2.76,1.86,1.4,1.71,1.86,2.76.68,2.18.68,3.38v17.77c0,1.59-1.29,2.88-2.88,2.88h-.03Z"/>
    <path class="st1" d="M95.23,46.81c0,1.37-.18,2.69-.53,3.96-.36,1.27-.86,2.46-1.51,3.57-.64,1.11-1.43,2.12-2.34,3.04s-1.92,1.7-3.03,2.35-2.29,1.15-3.57,1.51-2.6.53-3.98.53-2.69-.18-3.96-.53-2.46-.86-3.57-1.51c-1.11-.65-2.12-1.44-3.04-2.35s-1.69-1.92-2.35-3.04c-.65-1.11-1.15-2.3-1.51-3.57-.36-1.27-.53-2.59-.53-3.96s.18-2.69.53-3.98c.36-1.27.86-2.46,1.51-3.57.65-1.1,1.44-2.11,2.35-3.03s1.92-1.69,3.04-2.34c1.11-.64,2.3-1.15,3.57-1.51,1.27-.36,2.59-.53,3.96-.53s2.69.18,3.98.53c1.27.36,2.47.86,3.57,1.51s2.11,1.43,3.03,2.34,1.69,1.92,2.34,3.03c.64,1.1,1.15,2.29,1.51,3.57.36,1.27.53,2.6.53,3.98ZM89.48,46.81c0-1.27-.24-2.45-.73-3.58s-1.14-2.1-1.97-2.92-1.8-1.48-2.92-1.97-2.32-.73-3.58-.73-2.47.24-3.59.73-2.1,1.14-2.92,1.97-1.5,1.8-1.98,2.92-.73,2.32-.73,3.58.24,2.45.73,3.56c.49,1.11,1.15,2.08,1.98,2.92s1.8,1.5,2.92,1.98c1.11.49,2.31.73,3.59.73s2.45-.24,3.58-.73c1.12-.49,2.1-1.15,2.92-1.98s1.48-1.8,1.97-2.92.73-2.29.73-3.56Z"/>
    <path class="st1" d="M56.24,71.37l-7.26,22.11c-.54,1.64-2.07,2.74-3.8,2.74h0c-1.73,0-3.26-1.11-3.8-2.75l-7.23-22.1c-.66-2,.84-4.05,2.94-4.05h0c1.37,0,2.57.9,2.97,2.21l4.47,16.59c.2.66,1.13.66,1.33,0l4.44-16.59c.39-1.31,1.6-2.21,2.97-2.21h.03c2.1,0,3.6,2.06,2.94,4.06h0Z"/>
    <rect class="st1" x="65.32" y="67.31" width="29.9" height="5.79" rx="2.89" ry="2.89"/>
    <rect class="st1" x="65.32" y="78.87" width="19.82" height="5.79" rx="2.69" ry="2.69"/>
    <rect class="st1" x="65.32" y="90.44" width="29.9" height="5.79" rx="2.89" ry="2.89"/>
    <circle class="st1" cx="92.34" cy="81.77" r="2.89"/>
  </g>
</svg>