<svg xmlns="http://www.w3.org/2000/svg" viewBox="0 0 560 560" fill="none" shape-rendering="auto" aria-hidden="true" width="512" height="512"><!-- Generated by DiceBear (https://www.dicebear.com) --><metadata xmlns:rdf="http://www.w3.org/1999/02/22-rdf-syntax-ns#" xmlns:xsi="http://www.w3.org/2001/XMLSchema-instance" xmlns:dc="http://purl.org/dc/elements/1.1/" xmlns:dcterms="http://purl.org/dc/terms/"><rdf:RDF><rdf:Description><dc:title>Notionists</dc:title><dc:creator>Zoish</dc:creator><dc:source xsi:type="dcterms:URI">https://heyzoish.gumroad.com/l/notionists</dc:source><dcterms:license xsi:type="dcterms:URI">https://creativecommons.org/publicdomain/zero/1.0/</dcterms:license><dc:rights>Remix of “Notionists” (https://heyzoish.gumroad.com/l/notionists) by “Zoish”, licensed under “CC0 1.0” (https://creativecommons.org/publicdomain/zero/1.0/)</dc:rights></rdf:Description></rdf:RDF></metadata><defs><g id="mouth-variant25-21e4a0f7"><path d="M104.4 63.4c-14.7 4.9-15.7 8.4-8.6 22a59 59 0 0 0 17 18.4c29.7 23.5 71.7 13.1 91.8-12.8 6.2-8 6.6-19.1 1-27.6-5.4-8.1-13.8-3.4-20.8-.7-4.5 1.8-9.1 1.5-13.7 2-21.7 2.6-43-5-66.7-1.3" fill="none"/><path fill-rule="evenodd" clip-rule="evenodd" d="M83.3 84.7c10 24.5 30.3 35.6 54.6 43.5a88 88 0 0 0 75.5-28c9.3-9.9 11.5-33.9 4-44.3q-9.9-14-34-4.4a48 48 0 0 1-24.8 3.3l-6.2-1c-16.8-2.2-33.5-4.6-50.7-1.5-17.4 3.2-25.1 15.9-18.4 32.4m12.5.6c-7.1-13.5-6-17 8.6-22 12.5-1.9 24.4-.7 36 .5 10.3 1 20.4 2.1 30.7 1q2-.3 4.1-.4a30 30 0 0 0 11.9-2.6c6.5-2.7 13.7-5.7 18.6 1.6a24 24 0 0 1-1.1 27.6c-20.1 26-62.1 36.3-91.8 12.8a59 59 0 0 1-17-18.5" fill="#083a54"/></g><g id="nose-variant09-21e4a0f7"><path d="M75.1 116.2c3.9 16.3 7.4 31.6 11.2 46.7 5 19.6 2.1 28.4-15.7 35.9-20 8.2-45.5 7-59.6-15.5-2.2-3.5-3.6-6.6-3-10.6.7-3.2 1.9-5.7 5.4-6.3 3.7-.6 5 1.5 6.4 4.6q13.9 29.4 43.7 17.1c10.1-4 13.3-11.8 10-21.6a292 292 0 0 1-13.5-67c-1.5-14.8-4.2-30.2 5.7-43.3h4z" fill="#083a54"/><path d="M31.5 176.5c-5.7-8.1 0-10.7 5.5-12.3 4-1.2 8.2 1 7.9 5.6-.5 8-6.1 8.8-13.4 6.7" fill="#083a54"/></g><g id="eyes-variant03-21e4a0f7"><path d="M214 23q19.4.5 37.7 2.6c3 .3 4.9 3.3 5 6.6q-.1 5-4.8 7c-11.1 4.9-22 8.3-33.7.2-6.5-4.4-8.9-8.6-4.2-16.3M59.5 25.8c6.2 3.3 5.2 7 2.1 10.8-6.5 8-28.2 10-36.4 3.5-4.7-3.8-7.3-8.6-4.4-14.4 3-6 8.2-5 13-2.5 8 4 16.4 3 25.7 2.6" fill="#083a54"/></g><g id="eyebrows-variant09-21e4a0f7"><path d="M56.5 41.8Q47.3 41 40 41q-8.4-.5-9-8.8c-.5-5.3 3-7 7.5-8.5 8.6-3 17.1-.5 25.2.7 15.4 2.1 31.5-.6 46.4 6.3 5 2.3 8.3 4.7 6.4 10.3-1.8 5.2-6.1 5.2-10.6 4.1-16-3.7-32.4.9-49.4-3.3M250.8 32c17.2.9 33.1-5 49.3-1.2 4 1 9 .7 8.8 7 0 6.2-4.7 7.4-9.5 8-19 2.2-38 4-56.9 6.4-5.7.7-11 .1-12.6-5.6-1.7-5.7 4-7.8 8-10 3.5-2.1 7.8-3.1 12.9-4.7" fill="#083a54"/></g><clipPath id="clip-21e4a0f7"><rect width="560" height="560" rx="0" ry="0"/></clipPath></defs><g clip-path="url(#clip-21e4a0f7)"><rect width="560" height="560" fill="#b6e3f4"/><use transform="translate(136 329)" href="#mouth-variant25-21e4a0f7"/><use transform="translate(246 126)" href="#nose-variant09-21e4a0f7"/><use transform="translate(150.2 189.6)" href="#eyes-variant03-21e4a0f7"/><use transform="translate(120 114)" href="#eyebrows-variant09-21e4a0f7"/></g></svg>